<?xml version="1.0" encoding="iso-8859-1"?>
<!-- Generator: Adobe Illustrator 19.0.0, SVG Export Plug-In . SVG Version: 6.00 Build 0)  -->
<svg version="1.1" id="Layer_1" xmlns="http://www.w3.org/2000/svg" xmlns:xlink="http://www.w3.org/1999/xlink" x="0px" y="0px"
	 viewBox="0 0 361.061 361.061" style="enable-background:new 0 0 361.061 361.061;" xml:space="preserve">
<g>
	<path style="fill:#F7B239;" d="M235.815,320.719c-3.08,6.29-7.21,11.981-12.161,16.831c-11.029,10.829-26.16,17.51-42.84,17.51
		c-16.76,0-31.949-6.74-42.99-17.651c-4.94-4.86-9.05-10.56-12.1-16.86h56.37L235.815,320.719"/>
	<path style="fill:#4CC18E;" d="M125.725,6h110.18c-9.919,20.42-30.85,34.5-55.069,34.51h-0.021
		C156.575,40.51,135.634,26.43,125.725,6"/>
	<path style="fill:#A5A5A5;" d="M197.317,38.258c-5.244,1.465-10.771,2.25-16.482,2.252c5.71,0,11.24-0.79,16.49-2.25
		C197.322,38.259,197.32,38.258,197.317,38.258"/>
	<path style="fill:#418366;" d="M158.725,6h-33c9.91,20.43,30.85,34.51,55.09,34.51h0.02l0,0c5.71-0.002,11.238-0.787,16.482-2.252
		C180.311,33.516,166.293,21.607,158.725,6"/>
	<path style="fill:#F24125;" d="M212.174,145.89l9.94,78.72c-13.24-3.17-27.051-4.87-41.26-4.92
		c-14.21-0.05-28.041,1.57-41.301,4.669l10.451-78.669L212.174,145.89"/>
	<polyline style="fill:#A5A5A5;" points="150.004,145.69 139.554,224.359 139.554,224.359 150.005,145.69 150.004,145.69 	"/>
	<path style="fill:#9E3B2B;" d="M150.005,145.69l-10.451,78.669l0,0c0.088-0.021,0.177-0.041,0.265-0.062
		c0.031-0.007,0.063-0.015,0.095-0.022c0.057-0.013,0.116-0.027,0.174-0.04c0.09-0.021,0.179-0.041,0.269-0.062
		c0.012-0.003,0.026-0.006,0.039-0.009c0.175-0.04,0.351-0.08,0.527-0.119c0.246-0.055,0.492-0.11,0.738-0.165
		c0.017-0.004,0.033-0.007,0.05-0.011c8.267-1.823,16.748-3.073,25.4-3.704l9.881-74.388L150.005,145.69"/>
	<path style="fill:#4CC18E;" d="M341.525,321.06l-105.71-0.341l0.09-0.17h-53.81l-162.561-0.52
		c23.321-47.641,67.191-83.38,120.02-95.671c13.26-3.099,27.091-4.719,41.301-4.669c14.209,0.05,28.02,1.75,41.26,4.92
		C274.874,237.25,318.515,273.26,341.525,321.06"/>
	<path style="fill:#A17A36;" d="M182.095,320.55h-56.37c3.05,6.3,7.16,12,12.1,16.86l44.27,0.141h41.559
		c4.951-4.85,9.081-10.541,12.161-16.831L182.095,320.55"/>
	<path style="fill:#A5A5A5;" d="M180.163,219.689c-4.389,0.001-8.742,0.162-13.052,0.476l0,0
		C171.421,219.851,175.774,219.691,180.163,219.689 M180.217,219.689L180.217,219.689c0.001,0,0.001,0,0.002,0
		C180.219,219.689,180.218,219.689,180.217,219.689"/>
	<path style="fill:#9E3B2B;" d="M185.685,219.771c0.002,0,0.002,0,0.004,0C185.687,219.771,185.687,219.771,185.685,219.771
		 M185.233,219.758c0.046,0.001,0.092,0.002,0.137,0.004C185.325,219.76,185.279,219.759,185.233,219.758 M184.842,219.748
		c0.091,0.002,0.181,0.005,0.271,0.007C185.024,219.752,184.932,219.75,184.842,219.748 M184.517,219.74
		c0.106,0.002,0.212,0.005,0.318,0.008C184.729,219.745,184.623,219.742,184.517,219.74 M181.191,219.692
		c1.107,0.006,2.211,0.022,3.313,0.048C183.402,219.714,182.299,219.698,181.191,219.692 M180.855,219.69L180.855,219.69
		c0.109,0,0.219,0.001,0.328,0.001C181.074,219.691,180.964,219.691,180.855,219.69L180.855,219.69 M180.163,219.689
		c-4.389,0.001-8.742,0.162-13.052,0.476l0,0C171.421,219.851,175.774,219.69,180.163,219.689L180.163,219.689 M180.217,219.689
		L180.217,219.689L180.217,219.689L180.217,219.689c0.001,0,0.001,0,0.002,0l0,0C180.219,219.689,180.218,219.689,180.217,219.689"
		/>
	<path style="fill:#737373;" d="M141.66,223.881c-0.246,0.054-0.492,0.109-0.738,0.165
		C141.168,223.99,141.414,223.935,141.66,223.881 M167.11,220.166c-8.652,0.631-17.134,1.881-25.4,3.704
		C149.976,222.046,158.459,220.796,167.11,220.166L167.11,220.166"/>
	<path style="fill:#418366;" d="M180.217,219.689c-0.018,0-0.036,0-0.054,0l0,0c-4.389,0.001-8.742,0.162-13.052,0.476
		c-8.651,0.631-17.134,1.881-25.4,3.704l0,0c-0.017,0.004-0.033,0.007-0.05,0.011l0,0c-0.246,0.054-0.492,0.109-0.738,0.165l0,0
		c-0.456,0.103-0.913,0.208-1.368,0.314l0,0l0,0l0,0c-52.829,12.291-96.7,48.03-120.02,95.671h53.998
		c23.32-47.641,67.19-83.38,120.02-95.671c4.521-1.057,9.114-1.927,13.761-2.632c-7.08-1.073-14.295-1.736-21.624-1.956
		c-0.002,0-0.002,0-0.004,0c-0.105-0.003-0.21-0.006-0.314-0.009c-0.046-0.001-0.092-0.003-0.137-0.004
		c-0.04-0.001-0.079-0.002-0.119-0.003c-0.09-0.002-0.181-0.005-0.271-0.007c-0.003,0-0.005,0-0.007,0
		c-0.106-0.003-0.212-0.005-0.318-0.008c-0.004,0-0.008,0-0.012,0c-1.102-0.026-2.207-0.042-3.313-0.048c-0.003,0-0.005,0-0.008,0
		c-0.109,0-0.219-0.001-0.328-0.001l0,0c-0.212-0.001-0.424-0.001-0.635-0.001l0,0C180.219,219.689,180.218,219.689,180.217,219.689
		L180.217,219.689"/>
	<path style="fill:#FFFFFF;" d="M300.955,301.257c-1.692,0-3.374-0.712-4.561-2.098c-6.034-7.048-12.699-13.551-19.813-19.329
		c-11.273-9.159-23.836-16.674-37.34-22.338c-3.056-1.282-4.494-4.798-3.213-7.854c1.282-3.056,4.799-4.494,7.854-3.212
		c14.559,6.106,28.105,14.211,40.266,24.09c7.672,6.231,14.859,13.243,21.361,20.839c2.155,2.518,1.861,6.305-0.656,8.46
		C303.722,300.784,302.336,301.257,300.955,301.257z"/>
	<path style="fill:#FFFFFF;" d="M217.463,250.059c-1.59,0-3.13-0.64-4.25-1.76c-0.27-0.27-0.53-0.58-0.74-0.91
		c-0.22-0.32-0.409-0.67-0.56-1.03c-0.15-0.36-0.26-0.74-0.34-1.12c-0.08-0.39-0.11-0.79-0.11-1.18c0-1.58,0.63-3.13,1.75-4.24
		c1.39-1.39,3.46-2.03,5.42-1.64c0.38,0.08,0.76,0.19,1.12,0.34s0.71,0.34,1.04,0.55c0.32,0.22,0.63,0.47,0.91,0.75
		c1.11,1.11,1.75,2.66,1.75,4.24c0,0.39-0.04,0.79-0.11,1.18c-0.08,0.38-0.2,0.76-0.35,1.12c-0.15,0.36-0.33,0.71-0.55,1.03
		c-0.221,0.33-0.471,0.64-0.74,0.91c-0.28,0.28-0.59,0.53-0.91,0.75c-0.33,0.22-0.68,0.4-1.04,0.55s-0.74,0.27-1.12,0.34
		C218.243,250.019,217.852,250.059,217.463,250.059z"/>
	<path style="fill:#FFFFFF;" d="M202.295,205.701c-2.979,0-5.562-2.216-5.945-5.249l-4.299-34.046
		c-0.415-3.288,1.914-6.289,5.201-6.704c3.288-0.415,6.289,1.913,6.705,5.201l4.299,34.046c0.415,3.288-1.914,6.289-5.201,6.704
		C202.799,205.686,202.546,205.701,202.295,205.701z"/>
	<path style="fill:#333333;" d="M346.931,318.458c-11.743-24.394-29.093-46.339-50.172-63.464
		c-20.239-16.442-44.089-28.55-69.203-35.188l-9.429-74.667c-0.378-2.992-2.918-5.239-5.934-5.249l-25.359-0.082V46.236
		c23.48-2.059,44.002-16.072,54.467-37.615c0.903-1.859,0.786-4.053-0.311-5.805C239.894,1.064,237.972,0,235.905,0H125.724
		c-2.066,0-3.988,1.063-5.085,2.815s-1.216,3.944-0.313,5.804c10.287,21.207,31.252,35.49,54.509,37.608v93.543l-24.811-0.08h-0.02
		c-3.008,0-5.552,2.227-5.947,5.21l-9.912,74.62c-25.15,6.471-49.074,18.424-69.42,34.738
		c-21.188,16.988-38.677,38.819-50.579,63.134c-0.909,1.857-0.798,4.05,0.293,5.806c1.092,1.756,3.01,2.826,5.076,2.833
		l102.48,0.328c11.75,21.19,34.449,34.702,58.82,34.702c24.592,0,46.711-13.065,58.609-34.327l102.082,0.327h0.02
		c2.06,0,3.976-1.057,5.075-2.799C347.703,322.513,347.828,320.32,346.931,318.458z M136.296,12h89.032
		c-10.283,14.078-26.587,22.502-44.513,22.51C162.883,34.51,146.573,26.085,136.296,12z M155.258,151.707l51.624,0.166l8.222,65.115
		c-11.234-2.138-22.708-3.258-34.228-3.299c-11.536-0.023-23.013,1.016-34.263,3.088L155.258,151.707z M180.815,349.06
		c-17.928,0-34.237-8.424-44.518-22.51h45.739l43.177,0.138C214.921,340.686,198.659,349.06,180.815,349.06z M29.448,314.062
		c10.848-19.282,25.5-36.583,42.784-50.442c20.042-16.071,43.792-27.625,68.688-33.417c13.009-3.042,26.46-4.537,39.913-4.512
		c13.484,0.047,26.902,1.647,39.884,4.755c24.859,5.956,48.538,17.665,68.476,33.862c17.196,13.97,31.737,31.368,42.46,50.722
		L29.448,314.062z"/>
</g>
<g>
</g>
<g>
</g>
<g>
</g>
<g>
</g>
<g>
</g>
<g>
</g>
<g>
</g>
<g>
</g>
<g>
</g>
<g>
</g>
<g>
</g>
<g>
</g>
<g>
</g>
<g>
</g>
<g>
</g>
</svg>
