<?xml version="1.0" encoding="UTF-8" standalone="no"?>
<!-- Generator: Adobe Illustrator 19.0.0, SVG Export Plug-In . SVG Version: 6.00 Build 0)  -->

<svg
   version="1.1"
   id="Layer_1"
   x="0px"
   y="0px"
   viewBox="0 0 571.73138 367.03762"
   xml:space="preserve"
   sodipodi:docname="chandelier-svgrepo-com.svg"
   width="571.73138"
   height="367.03763"
   inkscape:version="1.1.1 (3bf5ae0d25, 2021-09-20)"
   xmlns:inkscape="http://www.inkscape.org/namespaces/inkscape"
   xmlns:sodipodi="http://sodipodi.sourceforge.net/DTD/sodipodi-0.dtd"
   xmlns="http://www.w3.org/2000/svg"
   xmlns:svg="http://www.w3.org/2000/svg"><defs
   id="defs149" /><sodipodi:namedview
   id="namedview147"
   pagecolor="#ffffff"
   bordercolor="#666666"
   borderopacity="1.0"
   inkscape:pageshadow="2"
   inkscape:pageopacity="0.0"
   inkscape:pagecheckerboard="0"
   showgrid="false"
   fit-margin-top="0"
   fit-margin-left="0"
   fit-margin-right="0"
   fit-margin-bottom="0"
   inkscape:zoom="3.2627171"
   inkscape:cx="116.46735"
   inkscape:cy="267.41516"
   inkscape:window-width="1920"
   inkscape:window-height="1051"
   inkscape:window-x="-9"
   inkscape:window-y="-9"
   inkscape:window-maximized="1"
   inkscape:current-layer="Layer_1" />
<path
   id="rect253"
   style="fill-rule:evenodd;stroke-width:1.06968"
   d="m 0,0 h 571.73138 l -104.54995,328.11253 -335.9788,0.95801 z"
   sodipodi:nodetypes="ccccc" /><g
   id="g114"
   transform="translate(117.79849,5.9766131)">
	<path
   style="fill:#f7b239"
   d="m 235.815,320.719 c -3.08,6.29 -7.21,11.981 -12.161,16.831 -11.029,10.829 -26.16,17.51 -42.84,17.51 -16.76,0 -31.949,-6.74 -42.99,-17.651 -4.94,-4.86 -9.05,-10.56 -12.1,-16.86 h 56.37 l 53.721,0.17"
   id="path80" />
	<path
   style="fill:#4cc18e"
   d="m 125.725,6 h 110.18 c -9.919,20.42 -30.85,34.5 -55.069,34.51 h -0.021 c -24.24,0 -45.181,-14.08 -55.09,-34.51"
   id="path82" />
	<path
   style="fill:#a5a5a5"
   d="m 197.317,38.258 c -5.244,1.465 -10.771,2.25 -16.482,2.252 5.71,0 11.24,-0.79 16.49,-2.25 -0.003,-10e-4 -0.005,-0.002 -0.008,-0.002"
   id="path84" />
	<path
   style="fill:#418366"
   d="m 158.725,6 h -33 c 9.91,20.43 30.85,34.51 55.09,34.51 h 0.02 v 0 c 5.71,-0.002 11.238,-0.787 16.482,-2.252 C 180.311,33.516 166.293,21.607 158.725,6"
   id="path86" />
	<path
   style="fill:#f24125"
   d="m 212.174,145.89 9.94,78.72 c -13.24,-3.17 -27.051,-4.87 -41.26,-4.92 -14.21,-0.05 -28.041,1.57 -41.301,4.669 l 10.451,-78.669 62.17,0.2"
   id="path88" />
	<polyline
   style="fill:#a5a5a5"
   points="150.004,145.69 139.554,224.359 139.554,224.359 150.005,145.69 150.004,145.69  "
   id="polyline90" />
	<path
   style="fill:#9e3b2b"
   d="m 150.005,145.69 -10.451,78.669 v 0 c 0.088,-0.021 0.177,-0.041 0.265,-0.062 0.031,-0.007 0.063,-0.015 0.095,-0.022 0.057,-0.013 0.116,-0.027 0.174,-0.04 0.09,-0.021 0.179,-0.041 0.269,-0.062 0.012,-0.003 0.026,-0.006 0.039,-0.009 0.175,-0.04 0.351,-0.08 0.527,-0.119 0.246,-0.055 0.492,-0.11 0.738,-0.165 0.017,-0.004 0.033,-0.007 0.05,-0.011 8.267,-1.823 16.748,-3.073 25.4,-3.704 l 9.881,-74.388 -26.987,-0.087"
   id="path92" />
	<path
   style="fill:#4cc18e"
   d="m 341.525,321.06 -105.71,-0.341 0.09,-0.17 h -53.81 l -162.561,-0.52 c 23.321,-47.641 67.191,-83.38 120.02,-95.671 13.26,-3.099 27.091,-4.719 41.301,-4.669 14.209,0.05 28.02,1.75 41.26,4.92 52.759,12.641 96.4,48.651 119.41,96.451"
   id="path94" />
	<path
   style="fill:#a17a36"
   d="m 182.095,320.55 h -56.37 c 3.05,6.3 7.16,12 12.1,16.86 l 44.27,0.141 h 41.559 c 4.951,-4.85 9.081,-10.541 12.161,-16.831 l -53.72,-0.17"
   id="path96" />
	<path
   style="fill:#a5a5a5"
   d="m 180.163,219.689 c -4.389,0.001 -8.742,0.162 -13.052,0.476 v 0 c 4.31,-0.314 8.663,-0.474 13.052,-0.476 m 0.054,0 v 0 c 10e-4,0 10e-4,0 0.002,0 0,0 -0.001,0 -0.002,0"
   id="path98" />
	<path
   style="fill:#9e3b2b"
   d="m 185.685,219.771 c 0.002,0 0.002,0 0.004,0 -0.002,0 -0.002,0 -0.004,0 m -0.452,-0.013 c 0.046,10e-4 0.092,0.002 0.137,0.004 -0.045,-0.002 -0.091,-0.003 -0.137,-0.004 m -0.391,-0.01 c 0.091,0.002 0.181,0.005 0.271,0.007 -0.089,-0.003 -0.181,-0.005 -0.271,-0.007 m -0.325,-0.008 c 0.106,0.002 0.212,0.005 0.318,0.008 -0.106,-0.003 -0.212,-0.006 -0.318,-0.008 m -3.326,-0.048 c 1.107,0.006 2.211,0.022 3.313,0.048 -1.102,-0.026 -2.205,-0.042 -3.313,-0.048 m -0.336,-0.002 v 0 c 0.109,0 0.219,0.001 0.328,0.001 -0.109,0 -0.219,0 -0.328,-0.001 v 0 m -0.692,-0.001 c -4.389,0.001 -8.742,0.162 -13.052,0.476 v 0 c 4.31,-0.314 8.663,-0.475 13.052,-0.476 v 0 m 0.054,0 v 0 0 0 c 10e-4,0 10e-4,0 0.002,0 v 0 c 0,0 -0.001,0 -0.002,0"
   id="path100" />
	<path
   style="fill:#737373"
   d="m 141.66,223.881 c -0.246,0.054 -0.492,0.109 -0.738,0.165 0.246,-0.056 0.492,-0.111 0.738,-0.165 m 25.45,-3.715 c -8.652,0.631 -17.134,1.881 -25.4,3.704 8.266,-1.824 16.749,-3.074 25.4,-3.704 v 0"
   id="path102" />
	<path
   style="fill:#418366"
   d="m 180.217,219.689 c -0.018,0 -0.036,0 -0.054,0 v 0 c -4.389,0.001 -8.742,0.162 -13.052,0.476 -8.651,0.631 -17.134,1.881 -25.4,3.704 v 0 c -0.017,0.004 -0.033,0.007 -0.05,0.011 v 0 c -0.246,0.054 -0.492,0.109 -0.738,0.165 v 0 c -0.456,0.103 -0.913,0.208 -1.368,0.314 v 0 0 0 c -52.829,12.291 -96.7,48.03 -120.02,95.671 h 53.998 c 23.32,-47.641 67.19,-83.38 120.02,-95.671 4.521,-1.057 9.114,-1.927 13.761,-2.632 -7.08,-1.073 -14.295,-1.736 -21.624,-1.956 -0.002,0 -0.002,0 -0.004,0 -0.105,-0.003 -0.21,-0.006 -0.314,-0.009 -0.046,-0.001 -0.092,-0.003 -0.137,-0.004 -0.04,-0.001 -0.079,-0.002 -0.119,-0.003 -0.09,-0.002 -0.181,-0.005 -0.271,-0.007 -0.003,0 -0.005,0 -0.007,0 -0.106,-0.003 -0.212,-0.005 -0.318,-0.008 -0.004,0 -0.008,0 -0.012,0 -1.102,-0.026 -2.207,-0.042 -3.313,-0.048 -0.003,0 -0.005,0 -0.008,0 -0.109,0 -0.219,-0.001 -0.328,-0.001 v 0 c -0.212,-0.001 -0.424,-0.001 -0.635,-0.001 v 0 c -0.005,-0.001 -0.006,-0.001 -0.007,-0.001 v 0"
   id="path104" />
	<path
   style="fill:#ffffff"
   d="m 300.955,301.257 c -1.692,0 -3.374,-0.712 -4.561,-2.098 -6.034,-7.048 -12.699,-13.551 -19.813,-19.329 -11.273,-9.159 -23.836,-16.674 -37.34,-22.338 -3.056,-1.282 -4.494,-4.798 -3.213,-7.854 1.282,-3.056 4.799,-4.494 7.854,-3.212 14.559,6.106 28.105,14.211 40.266,24.09 7.672,6.231 14.859,13.243 21.361,20.839 2.155,2.518 1.861,6.305 -0.656,8.46 -1.131,0.969 -2.517,1.442 -3.898,1.442 z"
   id="path106" />
	<path
   style="fill:#ffffff"
   d="m 217.463,250.059 c -1.59,0 -3.13,-0.64 -4.25,-1.76 -0.27,-0.27 -0.53,-0.58 -0.74,-0.91 -0.22,-0.32 -0.409,-0.67 -0.56,-1.03 -0.15,-0.36 -0.26,-0.74 -0.34,-1.12 -0.08,-0.39 -0.11,-0.79 -0.11,-1.18 0,-1.58 0.63,-3.13 1.75,-4.24 1.39,-1.39 3.46,-2.03 5.42,-1.64 0.38,0.08 0.76,0.19 1.12,0.34 0.36,0.15 0.71,0.34 1.04,0.55 0.32,0.22 0.63,0.47 0.91,0.75 1.11,1.11 1.75,2.66 1.75,4.24 0,0.39 -0.04,0.79 -0.11,1.18 -0.08,0.38 -0.2,0.76 -0.35,1.12 -0.15,0.36 -0.33,0.71 -0.55,1.03 -0.221,0.33 -0.471,0.64 -0.74,0.91 -0.28,0.28 -0.59,0.53 -0.91,0.75 -0.33,0.22 -0.68,0.4 -1.04,0.55 -0.36,0.15 -0.74,0.27 -1.12,0.34 -0.39,0.08 -0.781,0.12 -1.17,0.12 z"
   id="path108" />
	<path
   style="fill:#ffffff"
   d="m 202.295,205.701 c -2.979,0 -5.562,-2.216 -5.945,-5.249 l -4.299,-34.046 c -0.415,-3.288 1.914,-6.289 5.201,-6.704 3.288,-0.415 6.289,1.913 6.705,5.201 l 4.299,34.046 c 0.415,3.288 -1.914,6.289 -5.201,6.704 -0.256,0.033 -0.509,0.048 -0.76,0.048 z"
   id="path110" />
	<path
   style="fill:#333333"
   d="M 346.931,318.458 C 335.188,294.064 317.838,272.119 296.759,254.994 276.52,238.552 252.67,226.444 227.556,219.806 l -9.429,-74.667 c -0.378,-2.992 -2.918,-5.239 -5.934,-5.249 l -25.359,-0.082 V 46.236 C 210.314,44.177 230.836,30.164 241.301,8.621 242.204,6.762 242.087,4.568 240.99,2.816 239.894,1.064 237.972,0 235.905,0 H 125.724 c -2.066,0 -3.988,1.063 -5.085,2.815 -1.097,1.752 -1.216,3.944 -0.313,5.804 10.287,21.207 31.252,35.49 54.509,37.608 v 93.543 l -24.811,-0.08 h -0.02 c -3.008,0 -5.552,2.227 -5.947,5.21 l -9.912,74.62 c -25.15,6.471 -49.074,18.424 -69.42,34.738 -21.188,16.988 -38.677,38.819 -50.579,63.134 -0.909,1.857 -0.798,4.05 0.293,5.806 1.092,1.756 3.01,2.826 5.076,2.833 l 102.48,0.328 c 11.75,21.19 34.449,34.702 58.82,34.702 24.592,0 46.711,-13.065 58.609,-34.327 l 102.082,0.327 h 0.02 c 2.06,0 3.976,-1.057 5.075,-2.799 1.102,-1.749 1.227,-3.942 0.33,-5.804 z M 136.296,12 h 89.032 c -10.283,14.078 -26.587,22.502 -44.513,22.51 -17.932,0 -34.242,-8.425 -44.519,-22.51 z m 18.962,139.707 51.624,0.166 8.222,65.115 c -11.234,-2.138 -22.708,-3.258 -34.228,-3.299 -11.536,-0.023 -23.013,1.016 -34.263,3.088 z m 25.557,197.353 c -17.928,0 -34.237,-8.424 -44.518,-22.51 h 45.739 l 43.177,0.138 c -10.292,13.998 -26.554,22.372 -44.398,22.372 z M 29.448,314.062 c 10.848,-19.282 25.5,-36.583 42.784,-50.442 20.042,-16.071 43.792,-27.625 68.688,-33.417 13.009,-3.042 26.46,-4.537 39.913,-4.512 13.484,0.047 26.902,1.647 39.884,4.755 24.859,5.956 48.538,17.665 68.476,33.862 17.196,13.97 31.737,31.368 42.46,50.722 z"
   id="path112" />
</g>
<g
   id="g116"
   transform="translate(117.79849,5.9766131)">
</g>
<g
   id="g118"
   transform="translate(117.79849,5.9766131)">
</g>
<g
   id="g120"
   transform="translate(117.79849,5.9766131)">
</g>
<g
   id="g122"
   transform="translate(117.79849,5.9766131)">
</g>
<g
   id="g124"
   transform="translate(117.79849,5.9766131)">
</g>
<g
   id="g126"
   transform="translate(117.79849,5.9766131)">
</g>
<g
   id="g128"
   transform="translate(117.79849,5.9766131)">
</g>
<g
   id="g130"
   transform="translate(117.79849,5.9766131)">
</g>
<g
   id="g132"
   transform="translate(117.79849,5.9766131)">
</g>
<g
   id="g134"
   transform="translate(117.79849,5.9766131)">
</g>
<g
   id="g136"
   transform="translate(117.79849,5.9766131)">
</g>
<g
   id="g138"
   transform="translate(117.79849,5.9766131)">
</g>
<g
   id="g140"
   transform="translate(117.79849,5.9766131)">
</g>
<g
   id="g142"
   transform="translate(117.79849,5.9766131)">
</g>
<g
   id="g144"
   transform="translate(117.79849,5.9766131)">
</g>
</svg>
