<?xml version="1.0" encoding="UTF-8" standalone="no"?>
<!-- Generator: Adobe Illustrator 18.0.0, SVG Export Plug-In . SVG Version: 6.00 Build 0)  -->

<svg
   version="1.1"
   id="Capa_1"
   x="0px"
   y="0px"
   viewBox="0 0 60 105.8935"
   xml:space="preserve"
   sodipodi:docname="fireplace-svgrepo-com.svg"
   width="60"
   height="105.8935"
   inkscape:version="1.1.1 (3bf5ae0d25, 2021-09-20)"
   xmlns:inkscape="http://www.inkscape.org/namespaces/inkscape"
   xmlns:sodipodi="http://sodipodi.sourceforge.net/DTD/sodipodi-0.dtd"
   xmlns:xlink="http://www.w3.org/1999/xlink"
   xmlns="http://www.w3.org/2000/svg"
   xmlns:svg="http://www.w3.org/2000/svg"><defs
   id="defs2728" /><sodipodi:namedview
   id="namedview2726"
   pagecolor="#ffffff"
   bordercolor="#666666"
   borderopacity="1.0"
   inkscape:pageshadow="2"
   inkscape:pageopacity="0.0"
   inkscape:pagecheckerboard="0"
   showgrid="false"
   fit-margin-top="0"
   fit-margin-left="0"
   fit-margin-right="0"
   fit-margin-bottom="0"
   inkscape:zoom="10.158767"
   inkscape:cx="37.110801"
   inkscape:cy="19.933521"
   inkscape:window-width="1920"
   inkscape:window-height="1051"
   inkscape:window-x="-9"
   inkscape:window-y="-9"
   inkscape:window-maximized="1"
   inkscape:current-layer="Capa_1" />
<rect
   x="9"
   y="80.893509"
   style="fill:#6c2027"
   width="42"
   height="21"
   id="rect2667" />
<path
   style="fill:#212f3f"
   d="m 46.999999,101.89351 h -34 v -1 c 0,-9.389002 7.611,-17.000002 17,-17.000002 v 0 c 9.389,0 17,7.611 17,17.000002 z"
   id="path2669" />
<path
   style="fill:#6b5b4b"
   d="m 34.877999,97.893508 c -2.709,2.656002 -7.01,2.657002 -9.718,0 h -6.16 v 4.000002 h 21 v -4.000002 z"
   id="path2671" />
<rect
   x="7.9999995"
   y="101.8935"
   style="fill:#556080"
   width="44"
   height="3"
   id="rect2673" />
<rect
   x="23"
   y="57.893509"
   style="fill:#f5eee4"
   width="14"
   height="4"
   id="rect2675" />
<polygon
   style="fill:#a0978e"
   points="35.667,15.5 24.333,15.5 16,24.5 44,24.5 "
   id="polygon2677"
   transform="translate(-3.5665283e-8,46.393508)" />
<rect
   x="26"
   y="46.893509"
   style="fill:#bcb3aa"
   width="8"
   height="11"
   id="rect2679" />
<polygon
   style="fill:#f5eee4"
   points="51,28.5 9,28.5 13,24.5 47,24.5 "
   id="polygon2681"
   transform="translate(-3.5665283e-8,46.393508)" />
<rect
   x="6"
   y="77.893509"
   style="fill:#a0978e"
   width="48"
   height="3"
   id="rect2683" />
<rect
   x="11"
   y="74.893509"
   style="fill:#bcb3aa"
   width="38"
   height="3"
   id="rect2685" />
<line
   style="fill:none;stroke:#38454f;stroke-width:2;stroke-linecap:round;stroke-miterlimit:10"
   x1="1"
   y1="104.8935"
   x2="59"
   y2="104.8935"
   id="line2687" />
<path
   style="fill:#ed8a19"
   d="m 35.237999,97.528508 c 2.406,-2.723 2.312,-6.896 -0.061,-9.65 l -1.726,-2.003 c -0.239,2.214 -0.861,3.921 -0.861,3.921 0,-2.14 -0.556,-4.104 -1.373,-5.841 -0.404,-0.029 -0.806,-0.062 -1.217,-0.062 -0.598,0 -1.188,0.032 -1.77,0.093 -2.094,2.51 -2.98,5.869 -2.278,9.089 0.006,0.029 0.013,0.058 0.019,0.087 0,0 -1.307,-1.883 -1.902,-4.213 -1.621,2.638 -1.4,6.104 0.673,8.51 2.777,3.222002 7.688,3.245002 10.496,0.069 z"
   id="path2689" />
<rect
   x="3"
   y="76.893509"
   style="fill:#f5eee4"
   width="54"
   height="2"
   id="rect2691" />
<path
   style="fill:#efce4a"
   d="m 32.945999,92.196508 -1.126,-1.283 c -0.156,1.418 -0.562,2.512 -0.562,2.512 0,-1.873 -0.674,-3.537 -1.539,-4.905 l -0.138,-0.157 -1.1,1.253 c -1.419,1.616 -2.021,3.811 -1.555,5.91 0.004,0.018 0.008,0.037 0.013,0.056 0,0 -0.853,-1.207 -1.241,-2.699 -1.058,1.69 -0.914,3.91 0.439,5.451 1.812,2.065002 5.017,2.079002 6.849,0.044 1.571,-1.745 1.509,-4.418 -0.04,-6.182 z"
   id="path2693" />
<g
   id="g2695"
   transform="translate(-3.5665283e-8,46.393508)">
</g>
<g
   id="g2697"
   transform="translate(-3.5665283e-8,46.393508)">
</g>
<g
   id="g2699"
   transform="translate(-3.5665283e-8,46.393508)">
</g>
<g
   id="g2701"
   transform="translate(-3.5665283e-8,46.393508)">
</g>
<g
   id="g2703"
   transform="translate(-3.5665283e-8,46.393508)">
</g>
<g
   id="g2705"
   transform="translate(-3.5665283e-8,46.393508)">
</g>
<g
   id="g2707"
   transform="translate(-3.5665283e-8,46.393508)">
</g>
<g
   id="g2709"
   transform="translate(-3.5665283e-8,46.393508)">
</g>
<g
   id="g2711"
   transform="translate(-3.5665283e-8,46.393508)">
</g>
<g
   id="g2713"
   transform="translate(-3.5665283e-8,46.393508)">
</g>
<g
   id="g2715"
   transform="translate(-3.5665283e-8,46.393508)">
</g>
<g
   id="g2717"
   transform="translate(-3.5665283e-8,46.393508)">
</g>
<g
   id="g2719"
   transform="translate(-3.5665283e-8,46.393508)">
</g>
<g
   id="g2721"
   transform="translate(-3.5665283e-8,46.393508)">
</g>
<g
   id="g2723"
   transform="translate(-3.5665283e-8,46.393508)">
</g>
<text
   xml:space="preserve"
   style="font-style:normal;font-weight:normal;font-size:6.66667px;line-height:1.25;font-family:sans-serif;fill:#808080;fill-opacity:1;stroke:none"
   id="text3664"
   transform="translate(-1.8278598,-0.74889119)"><textPath
     xlink:href="#path5353"
     id="textPath5435"><tspan
       id="tspan3662"
       style="font-size:6.66667px;fill:#808080;fill-opacity:1">Дым взле тает</tspan></textPath></text><path
   style="fill:none;stroke:none;stroke-width:1px;stroke-linecap:butt;stroke-linejoin:miter;stroke-opacity:1"
   d="M 33.999999,46.893509 34.101695,33.507234 47.390709,23.466645 53.296938,1.3182894"
   id="path5353" /></svg>
